/* XPM */
static char *result[] = {
/* columns rows colors chars-per-pixel */
"64 64 6 1 ",
"  c black",
". c #3B1A52",
"X c #705385",
"o c #A07EB8",
"O c #FF82F3",
"+ c white",
/* pixels */
"                                                                ",
"                                                                ",
"                                                                ",
"                                                                ",
"                                                                ",
"                                                                ",
"                                                                ",
"                                                                ",
"                                                                ",
"                                                                ",
"                                                                ",
"                                                                ",
"                                                                ",
"                                                                ",
"                                                                ",
"                                                                ",
"                                                                ",
"                                                                ",
"                                                                ",
"                                                                ",
"                         .......                                ",
"                       ..oooooo..                               ",
"                      .oo++++++oo.                              ",
"                     .o++++++++++o.                             ",
"                    .o++++++++++++o.                            ",
"                   .o++++++++++++++o.                           ",
"                   .o++++++++++++++o.                           ",
"                  .o++.+++++++++++++o.                          ",
"                  .o++.+++++++++++++o.                          ",
"                  .o++.+++++++++++++o.                          ",
"                  .o+++O++++++++++++o.                          ",
"                  .o++++++++++++++++o.                          ",
"                  .o++++++++++++++++o.                          ",
"                  .o++++++++++++++++o.                          ",
"                  .o++X+++++++++++++o.                          ",
"                   .o+X+X++++++++++++o.  .                      ",
"                   .o++X++++++++X++X++o..o.                     ",
"                    .o+++++++++++X++X++ooo.                     ",
"                    .o+++++++++++X++X++++o.                     ",
"                     .o+++++++++X++X++++oo.                     ",
"                      .o+++++++++++++++o..                      ",
"                       .oo+++++++++++oo.                        ",
"                        ..ooooooooooo..                         ",
"                          ............                          ",
"                                                                ",
"                                                                ",
"                                                                ",
"                                                                ",
"                                                                ",
"                                                                ",
"                                                                ",
"                                                                ",
"                                                                ",
"                                                                ",
"                                                                ",
"                                                                ",
"                                                                ",
"                                                                ",
"                                                                ",
"                                                                ",
"                                                                ",
"                                                                ",
"                                                                ",
"                                                                "
};
