/* XPM */
static char *result[] = {
/* columns rows colors chars-per-pixel */
"64 64 5 1 ",
"  c black",
". c #3B1A52",
"X c #A07EB8",
"o c #FF82F3",
"O c white",
/* pixels */
"                                                                ",
"                                                                ",
"                                                                ",
"                                                                ",
"                                                                ",
"                                                                ",
"                                                                ",
"                                                                ",
"                                                                ",
"                                                                ",
"                                                                ",
"                                                                ",
"                                                                ",
"                                                                ",
"                                                                ",
"                                                                ",
"                                                                ",
"                                                                ",
"                                                                ",
"                                                                ",
"                             .......                            ",
"                            ..XXXXXX..                          ",
"                           .XXOOOOOOXX.                         ",
"                          .XOOOOOOOOOOX.                        ",
"                         .XOOOOOOOOOOOOX.                       ",
"                        .XOOOOOOOOOOOOOOX.                      ",
"                        .XOOOOOOOOOOOOOOX.                      ",
"                       .XOOOOO..OOOOO..OOX.                     ",
"                       .XOOOOO..OOOOO..OOX.                     ",
"                       .XOOOOO..OOOOO..OOX.                     ",
"                       .XOOOooOOOOOOOOOooX.                     ",
"                       .XOOOooOOOO..OOOooX.                     ",
"                       .XOOOOOOOOOOOOOOOOX..                    ",
"                       .XOOOOOOOOOOOOOOOOOXX.                   ",
"                       .XOOOOOOOOOOOOOOOOOOX.                   ",
"                   .  .XOOOOOOOOOOOOOOOOOXXX.                   ",
"                  .X..XOOOOOOOOOOOOOOOOOX....                   ",
"                  .XXXOOOOOOOOOOOOOOOOOX.                       ",
"                  .XOOOOOOOOOOOOOOOOOOOX.                       ",
"                  .XXOOOOOOOOOOOOOOOOOX.                        ",
"                   ..XOOOOOOOOOOOOOOOX.                         ",
"                     .XXOOOOOOOOOOOXX.                          ",
"                      ..XXXXXXXXXXX..                           ",
"                       ............                             ",
"                                                                ",
"                                                                ",
"                                                                ",
"                                                                ",
"                                                                ",
"                                                                ",
"                                                                ",
"                                                                ",
"                                                                ",
"                                                                ",
"                                                                ",
"                                                                ",
"                                                                ",
"                                                                ",
"                                                                ",
"                                                                ",
"                                                                ",
"                                                                ",
"                                                                ",
"                                                                "
};
