/* XPM */
static char *result[] = {
/* columns rows colors chars-per-pixel */
"64 64 6 1 ",
"  c black",
". c #3B1A52",
"X c #705385",
"o c #A07EB8",
"O c #FF82F3",
"+ c white",
/* pixels */
"                                                                ",
"                                                                ",
"                                                                ",
"                                                                ",
"                                                                ",
"                                                                ",
"                                                                ",
"                                                                ",
"                                                                ",
"                                                                ",
"                                                                ",
"                                                                ",
"                                                                ",
"                                                                ",
"                                                                ",
"                                                                ",
"                                                                ",
"                                                                ",
"                                                                ",
"                                                                ",
"                             .......                            ",
"                            ..oooooo..                          ",
"                           .oo++++++oo.                         ",
"                          .o++++++++++o.                        ",
"                         .o++++++++++++o.                       ",
"                        .o++++++++++++++o.                      ",
"                        .o++++++++++++++o.                      ",
"                       .o+++++++++++++.++o.                     ",
"                       .o+++++++++++++.++o.                     ",
"                       .o+++++++++++++.++o.                     ",
"                       .o++++++++++++O+++o.                     ",
"                       .o++++++++++++++++o.                     ",
"                       .o++++++++++++++++o.                     ",
"                       .o++++++++++++++++o.                     ",
"                       .o+++++++++++++X++o.                     ",
"                   .  .o++++++++++++X+X+o.                      ",
"                  .o..o++X++X++++++++X++o.                      ",
"                  .ooo++X++X+++++++++++o.                       ",
"                  .o++++X++X+++++++++++o.                       ",
"                  .oo++++X++X+++++++++o.                        ",
"                   ..o+++++++++++++++o.                         ",
"                     .oo+++++++++++oo.                          ",
"                      ..ooooooooooo..                           ",
"                       ............                             ",
"                                                                ",
"                                                                ",
"                                                                ",
"                                                                ",
"                                                                ",
"                                                                ",
"                                                                ",
"                                                                ",
"                                                                ",
"                                                                ",
"                                                                ",
"                                                                ",
"                                                                ",
"                                                                ",
"                                                                ",
"                                                                ",
"                                                                ",
"                                                                ",
"                                                                ",
"                                                                "
};
