/* XPM */
static char *result[] = {
/* columns rows colors chars-per-pixel */
"64 64 5 1 ",
"  c black",
". c #3B1A52",
"X c #A07EB8",
"o c #FF82F3",
"O c white",
/* pixels */
"                                                                ",
"                                                                ",
"                                                                ",
"                                                                ",
"                                                                ",
"                                                                ",
"                                                                ",
"                                                                ",
"                                                                ",
"                                                                ",
"                                                                ",
"                                                                ",
"                                                                ",
"                                                                ",
"                                                                ",
"                                                                ",
"                                                                ",
"                                                                ",
"                                                                ",
"                                                                ",
"                           .......                              ",
"                         ..XXXXXX..                             ",
"                        .XXOOOOOOXX.                            ",
"                       .XOOOOOOOOOOX.                           ",
"                      .XOOOOOOOOOOOOX.                          ",
"                     .XOOOOOOOOOOOOOOX.                         ",
"                     .XOOOOOOOOOOOOOOX.                         ",
"                    .XOO..OOOOO..OOOOOX.                        ",
"                    .XOO..OOOOO..OOOOOX.                        ",
"                    .XOO..OOOOO..OOOOOX.                        ",
"                    .XooOOOOOOOOOooOOOX.                        ",
"                    .XooOOO..OOOOooOOOX.                        ",
"                   ..XOOOOOOOOOOOOOOOOX.                        ",
"                  .XXOOOOOOOOOOOOOOOOOX.                        ",
"                  .XOOOOOOOOOOOOOOOOOOX.                        ",
"                  .XXXOOOOOOOOOOOOOOOOOX.  .                    ",
"                  ....XOOOOOOOOOOOOOOOOOX..X.                   ",
"                      .XOOOOOOOOOOOOOOOOOXXX.                   ",
"                      .XOOOOOOOOOOOOOOOOOOOX.                   ",
"                       .XOOOOOOOOOOOOOOOOOXX.                   ",
"                        .XOOOOOOOOOOOOOOOX..                    ",
"                         .XXOOOOOOOOOOOXX.                      ",
"                          ..XXXXXXXXXXX..                       ",
"                            ............                        ",
"                                                                ",
"                                                                ",
"                                                                ",
"                                                                ",
"                                                                ",
"                                                                ",
"                                                                ",
"                                                                ",
"                                                                ",
"                                                                ",
"                                                                ",
"                                                                ",
"                                                                ",
"                                                                ",
"                                                                ",
"                                                                ",
"                                                                ",
"                                                                ",
"                                                                ",
"                                                                "
};
