/* XPM */
static char *result[] = {
/* columns rows colors chars-per-pixel */
"87 82 192 2 ",
"   c #0E0E0E",
".  c gray6",
"X  c #101010",
"o  c #111111",
"O  c gray7",
"+  c #131313",
"@  c gray8",
"#  c #151515",
"$  c #161616",
"%  c gray9",
"&  c #181818",
"*  c #191919",
"=  c gray10",
"-  c #1B1B1B",
";  c gray11",
":  c #1D1D1D",
">  c #1E1E1E",
",  c gray12",
"<  c #202020",
"1  c gray13",
"2  c #222222",
"3  c #232323",
"4  c gray14",
"5  c #252525",
"6  c gray15",
"7  c #272727",
"8  c #282828",
"9  c gray16",
"0  c #2A2A2A",
"q  c gray17",
"w  c #2C2C2C",
"e  c #2D2D2D",
"r  c gray18",
"t  c #2F2F2F",
"y  c gray19",
"u  c #313131",
"i  c #323232",
"p  c gray20",
"a  c #343434",
"s  c #353535",
"d  c gray21",
"f  c #373737",
"g  c gray22",
"h  c #393939",
"j  c #3A3A3A",
"k  c gray23",
"l  c #3C3C3C",
"z  c gray24",
"x  c #3E3E3E",
"c  c #3F3F3F",
"v  c gray25",
"b  c #414141",
"n  c gray26",
"m  c #464646",
"M  c gray28",
"N  c #484848",
"B  c #494949",
"V  c gray29",
"C  c #4B4B4B",
"Z  c #4C4C4C",
"A  c gray30",
"S  c #4E4E4E",
"D  c gray31",
"F  c #505050",
"G  c #515151",
"H  c gray32",
"J  c #555555",
"K  c #565656",
"L  c gray34",
"P  c #585858",
"I  c gray35",
"U  c #5A5A5A",
"Y  c #5B5B5B",
"T  c gray36",
"R  c #5D5D5D",
"E  c gray37",
"W  c #5F5F5F",
"Q  c #606060",
"!  c gray38",
"~  c #626262",
"^  c gray39",
"/  c #646464",
"(  c #656565",
")  c gray40",
"_  c #676767",
"`  c #686868",
"'  c DimGray",
"]  c #6A6A6A",
"[  c gray42",
"{  c #6C6C6C",
"}  c #6D6D6D",
"|  c gray43",
" . c #6F6F6F",
".. c gray44",
"X. c #717171",
"o. c #727272",
"O. c gray45",
"+. c #747474",
"@. c gray46",
"#. c #777777",
"$. c #797979",
"%. c #7B7B7B",
"&. c #7C7C7C",
"*. c gray49",
"=. c #7E7E7E",
"-. c #808080",
";. c #818181",
":. c gray51",
">. c #838383",
",. c #848484",
"<. c gray52",
"1. c #868686",
"2. c gray53",
"3. c #888888",
"4. c #898989",
"5. c gray54",
"6. c #8B8B8B",
"7. c gray55",
"8. c #8D8D8D",
"9. c #8E8E8E",
"0. c gray56",
"q. c #909090",
"w. c gray57",
"e. c #929292",
"r. c #939393",
"t. c gray58",
"y. c #959595",
"u. c gray59",
"i. c #979797",
"p. c gray60",
"a. c #9A9A9A",
"s. c #9B9B9B",
"d. c gray61",
"f. c #9D9D9D",
"g. c gray62",
"h. c #9F9F9F",
"j. c #A0A0A0",
"k. c gray63",
"l. c #A2A2A2",
"z. c gray64",
"x. c #A4A4A4",
"c. c #A5A5A5",
"v. c gray65",
"b. c #A7A7A7",
"n. c gray66",
"m. c #A9A9A9",
"M. c #AAAAAA",
"N. c gray67",
"B. c #ACACAC",
"V. c gray68",
"C. c #AEAEAE",
"Z. c #AFAFAF",
"A. c gray69",
"S. c #B1B1B1",
"D. c #B2B2B2",
"F. c gray70",
"G. c gray71",
"H. c #B6B6B6",
"J. c #B7B7B7",
"K. c gray72",
"L. c #B9B9B9",
"P. c gray73",
"I. c #BBBBBB",
"U. c gray74",
"Y. c gray",
"T. c #C0C0C0",
"R. c gray77",
"E. c #C5C5C5",
"W. c #C6C6C6",
"Q. c gray79",
"!. c #CBCBCB",
"~. c gray80",
"^. c gray81",
"/. c #D2D2D2",
"(. c LightGray",
"). c gray83",
"_. c #D5D5D5",
"`. c gray84",
"'. c #D7D7D7",
"]. c #D8D8D8",
"[. c gray85",
"{. c #DADADA",
"}. c gray86",
"|. c gainsboro",
" X c #DDDDDD",
".X c gray87",
"XX c gray88",
"oX c #E2E2E2",
"OX c gray89",
"+X c #E4E4E4",
"@X c gray90",
"#X c gray91",
/* pixels */
"< : > < - > : ; : > > : ; > > > > > > > > : : : > > > > > : : : : : : : : > > > > > > > > > > : : : > > , : : : : : : : : > : > , > > > > : : : : : : : : - - - - - < : > < - ",
", : < 1 ; , > : > , , > > , , , , , , , , > > > > > : : : > > > > , , , , > > > > > > > > > , , > > , > > , , , , , , , , > > > > > > : > , , , , , , , , < < < < < , : < 1 ; ",
"> : > , - , , , > > > > > , , , , , , , , , , , , , > > > , < < < , < , , , , , , , , , , > , , < < , > > > > > > > > > > , , > > > > > > > > > > > > > > , , , , , > : > , - ",
"1 < , > - > > > : : : : : > > > > > > > > : : > > > : : : > , , > > : : : > > > > > > > > ; ; : > > > > > > > > > > > > > > : : : > > > > > > > > > > > > > > > > > 1 < , > - ",
": > > < < < 1 1 < , < < < 1 1 1 1 1 1 1 1 , < < < , , , , 1 1 1 1 < < < 1 1 1 1 1 1 1 1 1 < < , < 1 < < < 1 1 1 1 1 1 1 1 1 < < < 1 < < , 1 1 1 1 1 1 1 1 1 1 1 1 1 : > > < < ",
"X * % . a _ ~ ~ ~ ~ ^ ~ ^ ~ ~ ~ ~ ~ ~ ~ ~ ~ ~ ~ ~ ~ ~ ~ ~ ~ ~ ~ ~ ~ ~ ! ! E E E E E E E E R E E E E ! _ { ] ] ] ] [ [ [ [ ^ ^ ^ ~ ~ ~ ~ ~ ~ ~ ~ ~ ~ ~ ~ ~ ~ ~ / ! [ a . % * X ",
"& < 2 ; h { ) _ _ _ _ ) _ _ _ _ _ _ _ _ _ _ _ _ _ _ _ _ _ _ _ _ _ _ _ _ _ ` ` ` ` ` ` ` ` ' ' ' ` ) ( ( ) / / ( ( ( ( ( ( ` _ _ _ _ _ _ _ _ _ _ _ _ _ _ _ _ ) ` / } h ; 2 < & ",
"- < > - s [ ( ) ) ) _ ( ) ) ) ) ) ) ) ) ) ) ) ) ) ) ) ) ) ) ) ) ) ) ) _ _ ) ) ) ) ) ) ) ) ) ) _ _ _ _ ( / ) ) ) ) ) ) ) ) ) ) ) ) ) ) ) ) ) ) ) ) ) ) ) ) _ _ ` / | s - > < - ",
"& < ; ; k [ ( ) ) ) _ ) ) ) ) ) ) ) ) ) ) ) ) ) ) ) ) ) ) ) ) ( ( ( ( ( ( ) ) ) ) ) ) ) ) ) ( ( ) ) ) ( ( _ _ _ _ _ _ _ _ ) ) ) ) ) ) ) ) ) ) ) ) ) ) ) ) ( / ) ^ } k ; ; < & ",
"$ 3 > * g { ) ) _ ) _ ) _ _ _ _ _ _ _ _ _ _ _ _ _ _ _ _ _ ) ) ) _ _ ) ) ) ( ( ( ( ( ( ( ( _ _ _ ) ) ) ) _ ) ) ) ) ) ) ( ( ) ) ) ) _ _ _ _ ) ) ) ) ) ) ) ) ) ) _ ^ } g * > 3 $ ",
"@ , < - k ] ( ( ) ( ) ( ) ( ( ( ( ( ( ( ( ( ( ( ( ( ( ( ( ( ( ( ) ) ) ) ) _ _ _ _ _ _ _ _ / ( ) ) ) ) ) _ _ _ _ _ ) ) ) ) ( ( ( ( ) ) ) ( ( ( ( ( ( ( ( ( _ ) _ / } k - < , @ ",
". < 1 = g [ ) ) _ ) _ ) _ ) ) ) ) ) ) ) ) ) ) ) ) ) ) ) ) ) ) ) ) ) ) _ _ ( ( ( ( ( ( ( ( _ _ _ _ ) ( ( ( ) ) ) ) ) ) ) ) ) ) _ _ _ _ _ ) ) ) ) ) ) ) ) ) ( ( _ ^ } g = 1 < . ",
"+ 3 , = j [ ( ) ) ) ) ( ) _ _ _ _ _ _ _ _ _ _ _ _ _ _ _ _ _ ) ) ( ( ( ) ) ) ) ) ) ) ) ) ) ) ( ( ( ( ) ) ) ) ) ) ) ) ) ) ) ) ) ) ) ) ) ) ) ( ( ( ( ( ( ( ( ) ) _ / } j = , 3 + ",
"@ < 2 - g [ ( ) ) ) _ ) ) _ _ ~ ( Q _ ( ) ` ' ` ` ` ` _ _ _ _ _ _ _ _ _ _ _ _ _ _ _ _ _ _ _ _ _ _ _ _ _ _ _ _ _ _ _ _ _ _ _ _ _ ] _ ` ) _ _ ' ) ( _ _ / _ _ ` ( ( { g - 2 < @ ",
"# > : % l [ ( ) ) ) _ ) ) ( ` { [  .] ' ! Q Q W R ^ R W ~ Q Q Q Q Q Q Q Q Q Q Q Q Q Q Q Q Q Q Q Q Q Q Q Q Q Q Q Q Q Q Q Q E ! Q W Q ! Q ! ! T W ] / / ) _ ) ( ) ( | l % : > # ",
"$ 1 1 - f [ ( ) ) ) _ ) ) ) { x.v.f.n.k.y > 1 1 5 < , 2 1 1 1 1 1 1 1 1 1 1 1 1 1 1 1 1 1 1 1 1 1 1 1 1 1 1 1 1 1 1 1 1 1 5 , 1 4 1 , < < 1 : l ' ( _ _ / _ ) _ ! } f - 1 1 $ ",
"- , , - h [ ( ) ) ) _ ) ) ^ } x.m.m.n.h.w * , ; > , < 2 - ; ; ; ; ; ; ; ; ; ; ; ; ; ; ; ; ; ; ; ; ; ; ; ; ; ; ; ; ; ; ; ; : > , , ; < , : , * g { ~ ( _ _ _ ) ` ^ [ h - , , - ",
"% 2 < $ k [ ( ) ) ) _ ) ) ~ X.b.v.c.b.z.y = 1 < * < * > , , , , , , , , , , , , , , , , , , , , , , , , , , , , , , , , , ; 1 : > ; , ; 1 > - h  .) _ / ( / / ) ` } k $ < 2 % ",
"% 1 1 & h [ ( ) ) ) _ ) ) /  .k.v.m.m.j.y - - ; 1 > 1 < , > > > > > > > > > > > > > > > > > > > > > > > > > > > > > > > > > ; : 3 , < , , : - g ' / _ ( ` _ ` / ^ [ h & 1 1 % ",
"* > , : g [ ( ) ) ) _ ) ) ! } v.b.x.b.k.r = , 1 : = , = > : : : : : : : : : : : : : : : : : : : : : : : : : : : : : : : : , > : = , > , : < : j [ ) _ ( ) ( ) ( / X.g : , > * ",
"& < > = g [ ( ) ) ) _ ) ) _ { c.c.z.m.z.t = < , : +.w.8.8.9.9.9.9.9.9.9.9.9.9.9.9.9.9.9.9.9.9.9.9.9.9.9.9.9.9.9.9.9.9.9.9.5.0.8.0.u.D - , , = h ] ( ) ` ) _ ^ _ ) ( g = > < & ",
"% , < = h [ ( ) _ ) ) ( ) / | z.b.c.n.k.r * 1 ; & 4.S.M.N.B.V.B.V.B.M.B.C.B.B.B.B.B.B.B.B.B.B.B.B.B.B.B.B.C.M.B.N.N.N.M.V.N.V.M.N.G.E # 1 , = j { ) ) ) ) ( ) _ ( ( h = < , % ",
"& > > - j [ ( ) _ ) ) ( ) / | z.b.c.n.k.r - , 1 * ,.B.c.z.x.c.x.x.z.b.m.z.c.c.c.c.c.c.c.c.c.c.c.c.c.c.c.c.x.x.b.c.c.c.z.z.c.b.c.x.Z.U + , , = j { ) ) ) ) ) ` _ ( ) j - > > & ",
": < > - f [ ( ) _ ) ) ( ) / | z.b.c.n.k.r - < , $ ,.C.x.n.v.x.m.M.x.z.v.v.v.v.v.v.v.v.v.v.v.v.v.v.v.v.v.v.c.b.v.v.v.b.n.M.c.b.b.x.A.T # 1 , = h [ ) ( ) ) / ( ) _ ' f - > < : ",
"# > , ; h [ ( ) _ ) ) ( ) / | z.b.c.n.k.r : , - < <.S.n.N.m.n.n.x.b.n.v.v.b.b.b.b.b.b.b.b.b.b.b.b.b.b.b.b.b.v.k.v.c.z.z.z.m.x.b.c.S.T @ , , = j { ) ) ) ) ` ( ( ( / h ; , > # ",
"% < < * h [ ( ) _ ) ) ( ) / | z.b.c.n.k.r * , < > f n b n k *.V.n.v.c.z.v.v.v.v.v.v.v.v.v.v.v.v.v.v.v.v.v.c.v.n.T.!.Q.!.!.A.z.v.x.S.Y O , , = j { ) ) _ ) ) / ) _ } h * < < % ",
"@ < < % j [ ( ) _ ) ) ( ) / | z.b.c.n.k.r ; 1 ; - ; * % & X | S.v.c.m.v.n.b.b.b.b.b.b.b.b.b.b.b.b.b.b.b.b.b.v.M.^. X[.{.}.J.x.v.z.D.T @ 2 , = h [ ) ( ) ) ( _ ` / } j % < < @ ",
"# < , * j [ ( ) _ ) ) ( ) / | z.b.c.n.k.r * 3 > ; < , : 6 * ..Z.z.x.n.c.n.v.v.v.v.v.v.v.v.v.v.v.v.v.v.v.v.v.c.x.~.{._.`.[.H.l.v.l.S.Y @ 1 , = h [ ) ( ) ) ( ` _ ^ { j * , < # ",
"% < > = h [ ( ) _ ) ) ( ) / | z.b.c.n.k.r = > < > , 1 : < % [ A.v.x.v.x.v.v.v.v.v.v.v.v.v.v.v.v.v.v.v.v.v.v.c.x.~.{.).'.[.G.z.m.z.S.T @ , , = h [ ( ( ) ) _ ( ( ( ..h = > < % ",
"& , , * h [ ( ) _ ) ) ( ) / | z.b.c.n.k.r = , > > > : , , + O.D.m.N.B.B.M.B.B.B.B.B.B.B.B.N.N.N.N.N.N.N.N.V.N.b._. X[.|..XH.c.v.b.A.R # , < % z  .{ { [ ' ) ) _ ( | h * , , & ",
"% , , - g [ ( ) _ ) ) ( ) / | z.b.c.n.k.r = , > > > : , , * T 3.-.:.-.;.>.;.;.;.;.;.;.;.;.;.;.;.;.;.;.;.;.;.:.-.S.U.L.P.I.C.x.v.c.Z.R # < > ; q z c x h V ' ^ ` ) ] g - , , % ",
"* , > ; g [ ( ) _ ) ) ( ) / | z.b.c.n.k.r = , > > > : , , * M _ ! ( ! ~ ~ ~ ~ ~ ~ ~ ~ ~ ~ ! ! ! ! ! ! ! ! ~ ~ ! u.x.l.l.k.v.x.b.z.C.R @ < , > : * ; = @ 0 [ / _ ( ( g ; > , * ",
"= < , ; g [ ( ) _ ) ) ( ) / | z.b.c.n.k.r = , > > > : , , ; C [ ( _ ) ` ( _ _ _ _ _ _ _ _ ) ) ) ) ) ) ) ) _ _ ) s.m.b.b.n.x.v.n.z.A.T + < < = , , < 1 > y ` ` ( ) _ g ; , < = ",
"% , , = h [ ( ) _ ) ) ( ) / | z.b.c.n.k.r = , > > > : , > * C } / / ( ] ) _ _ _ _ _ _ _ _ ) ) ) ) ) ) ) ) ` _ ) s.m.v.v.b.c.b.v.x.S.Y O < > > , , < 1 : y ` ' ( ) ` h = , , % ",
"$ 1 1 & h [ ( ) _ ) ) ( ) / | z.b.c.n.k.r = , > > > : , > = B { ( ( / _ ( ) ) ) ) ) ) ) ) ) ) ) ) ) ) ) ) ( ( _ d.m.c.c.v.v.b.x.x.D.Y O < > 2 * % $ # o 9 [ ( _ ( ( h & 1 1 $ ",
"& < 1 * g [ ( ) _ ) ) ( ) / | z.b.c.n.k.r = , > > > : > > = B [ ) ` ( ) ) ) ) ) ) ) ) ) ) ) ) ) ) ) ) ) ) ( ( ( d.m.c.c.v.v.n.x.c.S.Y @ < , : r J F F D I ' ^ ` ) ] g * 1 < & ",
"& > , = h [ ( ) _ ) ) ( ) / | z.b.c.n.k.r = , > > > : > > = C [ / _ / ) ` ) ) ) ) ) ) ) ) ) ) ) ) ) ) ) ) _ ( ( a.m.v.v.b.v.n.v.b.S.Y $ , < # K K.C.Z.D.f.( ) ) ( | h = , > & ",
"& < , = h [ ( ) _ ) ) ( ) / | z.b.c.n.k.r = , > > > : , , = V ] ) ) ) ) ) ) ) ) ) ) ) ) ) ) ) ) ) ) ) ) ) ( ) ( d.M.c.v.v.b.b.v.x.A.Y + 1 < & D B.k.z.b.y.( ) _ ) } h = , < & ",
"& < , = h [ ( ) _ ) ) ( ) / | z.b.c.n.k.r = , > > > : , , = V ] ) ) ) ) ) ) ) ) ) ) ) ) ) ) ) ) ) ) ) ) ) ( ) ( d.M.c.v.v.b.b.v.x.A.Y + 1 : @ G D.v.b.m.t.( ) _ ) } h = , < & ",
"& < , = h [ ( ) _ ) ) ( ) / | z.b.c.n.k.r = , > > > : , , = V ] ) ) ) ) ) ) ) ) ) ) ) ) ) ) ) ) ) ) ) ) ) ( ) ( d.M.c.v.v.b.b.v.x.A.Y + 1 2 # H Z.c.n.C.s.( ) _ ( } h = , < & ",
"& < , = h [ ( ) _ ) ) ( ) / | z.b.c.n.k.r = , > > > : , , = V ] ) ) ) ) ) ) ) ) ) ) ) ) ) ) ) ) ) ) ) ) ) ( ) ( d.M.c.v.v.b.b.v.x.A.Y + 1 , # V s.e.r.i.4.( ) ) ( } h = , < & ",
"& < , = h [ ( ) _ ) ) ( ) / | z.b.c.n.k.r = , > > > : , , = V ] ) ) ) ) ) ) ) ) ) ) ) ) ) ) ) ) ) ) ) ) ) ( ) ( d.M.c.v.v.b.b.v.x.A.Y + 1 1 % s { ! ~ ( ^ ( ) ) ( } h = , < & ",
"& < , = h [ ( ) _ ) ) ( ) / | z.b.c.n.k.r = , > > > : , , = V ] ) ) ) ) ) ) ) ) ) ) ) ) ) ) ) ) ) ) ) ) ) ( ) ( d.M.c.v.v.b.b.v.x.A.Y + 1 ; = j } ` _ _ _ ) ) ) / { h = , < & ",
"& < , = h [ ( ) _ ) ) ( ) / | z.b.c.n.k.r = , > > > : , , = V ] ) ) ) ) ) ) ) ) ) ) ) ) ) ) ) ) ) ) ) ) ) ( ) ( d.M.c.v.v.b.b.v.x.A.Y + 1 , = j ] ) ) ) ) ) ) ) / { h = , < & ",
"& < , = h [ ( ) _ ) ) ( ) / | z.b.c.n.k.r = , > > > : , , = V ] ) ) ) ) ) ) ) ) ) ) ) ) ) ) ) ) ) ) ) ) ) ( ) ( d.M.c.v.v.b.b.v.x.A.Y + 1 1 % h { _ ) ` ( ) ) ( / { h = , < & ",
"= > > - g } ) ( ` _ / / _ / | z.b.c.n.k.r = , > > > : , > = C { ) ( ) _ ) ) ) ) ) ) ) ) ) ) ) ) ) ) ) ) ) ( / ( a.M.x.v.v.b.b.x.b.Z.I # < , = h { _ ( ) ) ) ) ) / { g - > > = ",
"* , , = f ' _ / ^ ^ ` ` / / | z.b.c.n.k.r = , > > > : , > = C [ ) _ _ _ ( ) ) ) ) ) ) ) ) ) ) ) ) ) ) ) ) _ _ ) d.M.c.b.n.x.v.c.c.C.Y $ < , = h { _ ( ) ) ) ) ) / { f = , , * ",
"% < , = g } ` ^ ] ' _ ) ( / | z.b.c.n.k.r = , > > > : , > * A [ ( ( ( ) ' ) ) ) ) ) ) ) ) ) ) ) ) ) ) ) ) ~ ( ^ d.M.x.v.c.v.v.b.b.F.Y O , , = h { _ ( ) ) ) ) ) / { g = , < % ",
"% < > * j ] _ / ( ( ( ` ) / | z.b.c.n.k.r = , > > > : , > % C ] ( ` ] ) / ) ) ) ) ) ) ) ) ) ) ) ) ) ) ) ) ` ` / s.n.x.b.b.v.m.b.j.C.R $ < , = h { _ ( ) ) ) ) ) / { j * > < % ",
"% < : = k [ ) ` ` ` ) ) ) / | z.b.c.n.k.r = , > > > : , > = Z { ) ( ) _ ` ) ) ) ) ) ) ) ) ) ) ) ) ) ) ) ) _ ) ) s.M.b.v.v.m.b.v.n.F.Y + < , = h { _ ( ) ) ) ) ) ( } k = : < % ",
"& 2 : ; p [ Q / ^ ( ] ( _ / | z.b.c.n.k.r = , > > > : , > - m ) ) ) / ( / ( ( ( ( ( ( ( ( ( ( ( ( ( ( ( ( / / ` e.k.l.l.k.l.c.z.n.B.U # , , = h { _ ( ) ) ) ) ) ( } p ; : 2 & ",
"% < : : 5 8 7 8 4 a / ` _ / | z.b.c.n.k.r = , > > > : , > , 7 0 3 7 9 9 5 6 6 6 6 6 6 6 6 6 6 6 6 6 6 6 6 8 5 2 q q q 0 9 I o. .[ +.N ; > , = h { _ ( ) ) ) ) ) ( } 5 : : < % ",
"% < , > ; - ; ; = e ] ` ) / | z.b.c.n.k.r = , > > > : , > : ; : ; ; ; ; ; ; ; ; ; ; ; ; ; ; ; ; ; ; ; ; ; = : > : * ; - & S ` / / ] v = , , = h { _ ( ) ) ) ) ) ( } ; > , < % ",
"* < - < < > , , ; i ( ' / / | l.n.x.v.z.y = , > > > : , > , , , , , > > : > > > > > > > > > > > > > > > > , < < , < < > - F [ / _ [ c = > > = j [ ) _ _ ( ) ) ) / { < < - < * ",
"% < < > ; < , , - e ] / _ (  .z.m.c.b.z.t * , > > > : , > > > > > > > > > : : : : : : : : : : : : : : : : : > > : : > : = Z } / / | b & > > * g ' ( ) _ ) ) ) ) / { ; > < < % ",
"@ < < * 4 - & * & e _ ) ( ^ } k.n.c.b.l.e = , , > , > , > > > > > > > , , , , , , , , , , , , , , , , , , > , , > , , > - H | ) / [ n - > < = j ] ( ) _ ) ) ) ) / { 4 * < < @ ",
"& 1 , = x 9.1.2.1.=.) _ ' /  .z.m.c.n.z.r * , > > > : > > > > > > > > > , > > > > > > > > > > > > > > > > : > : : : > : ; 7 y e t u 7 : > , = h [ ) ) ) ( ) ) ) / { x = , 1 & ",
"= < > & D G.B.C.F.g.E / ) /  .c.n.x.v.l.r = , > > > > , > , , , > > > > > , , , , , , , , , , , , , , , , > < , , < , > : > - - ; * - 1 > > & g ] ( ( ) ( ) ) ) / { D & > < = ",
"& > > # A Z.x.z.c.r./ ` ) ~ | x.b.x.b.x.t = , > > > : , > > > > > : : : : > > > > > > > > > > > > > > > > > > , , , , > > : > , < , , > ; 1 = h [ ( ( ) ) ) ) ) / { A # > > & ",
"* , 2 $ A Z.k.c.B.y.~ ~ ' / ..x.n.v.m.c.r : 1 1 1 1 1 1 1 1 1 1 1 1 1 1 1 < < < < < < < < < < < < < < < < < < < < < < < < 1 2 1 , 1 1 , 2 < * h [ ) ( ) ) ) ) ) / { A $ 2 , * ",
"= > 1 $ D G.n.M.C.p./ ` ` ( | l.c.k.x.f.4   @ + + + O @ + @ @ # # # # # # # # # # # # # # # # # # # # # # # # # # # # # $ $ # # @ @ # @ # $ o a ' ) ) ) ) ) ) ) / { D $ 1 > = ",
"# , < % v ,.%.=.*.#.' ^ ) /  .R.E.W.R.E.e.0.0.0.0.0.0.0.0.q.*. .o.o.+.o.o.o.o.o.o.o.o.o.o.o.o.o.o.o.o.o.o.o.o.o.o.o.o.o.o.o.o.o.o.o.o.o.o...+. .~ ' ) ) _ ) ( _ ^ | v % < , # ",
"@ > 2 & h _ Q ~ ^ ( ^ ) ] / o._.|.}.{.|.OX@X@X@X@X@X@X@X+X#XR.B.A.A.A.Z.D.Z.Z.Z.Z.Z.Z.Z.Z.Z.Z.Z.Z.Z.Z.Z.Z.Z.Z.Z.Z.Z.Z.Z.Z.Z.Z.Z.Z.Z.Z.Z.Z.Z.F.t./ _ ( ^ ) ) ( _ ^ | h & 2 > @ ",
"$ < < * h } ) _ / ) ) _ ) ! @.).`.[.{._.(.(.(.).).(.(.(.(.{.J.h.x.x.c.x.l.c.c.c.c.c.c.c.c.c.c.c.c.c.c.c.c.c.c.c.c.c.c.c.c.c.c.c.c.c.c.c.c.k.b.8.! ) _ ` ) ) ( _ ^ | h * < < $ ",
"% 1 > = k ' / _ ( _ _ _ ( / O._._.(./.[.)._._._._._._.).).].J.z.b.c.b.v.x.v.v.v.v.v.v.v.v.v.v.v.v.v.v.v.v.v.v.v.v.v.v.v.v.c.c.c.c.c.c.c.c.v.b.0.^ _ ) ` ( ) ( _ ^ | k = > 1 % ",
"$ > < ; d } ) _ ( ) ( ) _ ~ .. X+X.X.X XOXXXXXXXXXXXXXXXXXoXY.b.B.N.M.M.V.N.N.N.N.N.N.N.N.N.N.N.N.N.N.N.N.N.N.N.N.N.N.N.N.M.M.M.M.M.M.M.M.M.A.q.! _ ) ( _ ) ( _ ^ | d ; < > $ ",
"$ , , - g ] ~ ( ( _ / ) ' ` X.h.j.d.x.h.k.j.j.j.j.j.j.h.h.x.r.1.4.3.4.4.7.5.5.5.5.5.5.5.5.5.5.5.5.5.5.5.5.5.5.5.5.5.5.5.5.5.5.5.5.5.5.5.5.2.5.&./ ` ) ( ( ) ( _ ^ | g - , , $ ",
"& 1 , * j { ( ` _ ` ( / ( / / W W Q Y R W E E W W W E E E E ! ~ ~ ! ^ ~ ~ ~ ~ ~ ~ ~ ~ ~ ~ ~ ~ ~ ~ ~ ~ ~ ~ ~ ~ ~ ~ ~ ~ ~ ~ ~ ~ ~ ~ ~ ~ ~ ~ / Q ~ ( / ( ` _ ) ( _ ^ | j * , 1 & ",
"$ , 1 = f [ ( ) / ) ) _ _ ) ` ` ) ] _ ' ` ` ` ` ` ` ` ` ` _ ] _ _ _ _ ( ` _ _ _ _ _ _ _ _ _ _ _ _ _ _ _ _ _ _ _ _ _ _ _ _ _ _ _ _ _ _ _ _ ) ` _ _ ( _ ) ( ) ( _ ^ | f = 1 , $ ",
"% , , > h [ ( ) ) ) ) ( ) ) ) ) ) ) ) ) ) ) ) ) ) ) ) ) ) ) ) ) ) ) ) ) ) ) ) ) ) ) ) ) ) ) ) ) ) ) ) ) ) ) ) ) ) ) ) ) ) ) ) ) ) ) ) ) ) ) ) ) ` ( ` ) ( ` ) ' _ | h > , , % ",
"* : : - g [ ( ) ) ) ) ( ) ) ) ) ) ) ) ) ) ) ) ) ) ) ) ) ) ) ) ) ) ) ) ) ) ) ) ) ) ) ) ) ) ) ) ) ) ) ) ) ) ) ) ) ) ) ) ) ) ) ) ) ) ) ) ) ) ( ) ( ) / ) / _ ! ^ ^ E ' g - : : * ",
"; , > * g [ ) ) _ ) _ ) _ ) ) ) ) ) ) ) ) ) ) ) ) ) ) ) ) ) ) ) ) ) ) ) ) ) ) ) ) ) ) ) ) ) ) ) ) ) ) ) ) ) ) ) ) ) ) ) ) ) ) ) ) ) ) ) ) ) _ ) _ ) ) / } &.%.%.$.;.g * > , ; ",
"& , < - j [ ( ) ) ) _ ( ) ) ) ) ) ) ) ) ) ) ) ) ) ) ) ) ) ) ) ) ) ) ) ) ) ) ) ) ) ) ) ) ) ) ) ) ) ) ) ) ) ) ) ) ) ) ) ) ) ) ) ) ) ) ) ) ) ( _ ) ) _ _ / +.C.n.m.M.b.j - < , & ",
": < , * g [ ( ) ) ) _ ) ) ) ) ) ) ) ) ) ) ) ) ) ) ) ) ) ) ) ) ) ) ) ) ) ) ) ) ) ) ) ) ) ) ) ) ) ) ) ) ) ) ) ) ) ) ) ) ) ) ) ) ) ) ) ) ) ) ( _ ) ) _ ) ^ #.v.v.b.b.b.g * , < : ",
"- : > = j ] ( ) ) ) _ ( ) ) ) ) ) ) ) ) ) ) ) ) ) ) ) ) ) ) ) ) ) ) ) ) ) ) ) ) ) ) ) ) ) ) ) ) ) ) ) ) ) ) ) ) ) ) ) ) ) ) ) ) ) ) ) ) ) ) ) ) ( ) ) ! @.b.v.c.z.v.j = > : - ",
"; , , - f } ` ` ' ' ' ` ' ' ' ' ' ' ' ' ' ' ' ' ' ' ' ' ' ' ' ' ' ' ' ' ' ' ' ' ' ' ' ' ' ' ' ' ' ' ' ' ' ' ' ' ' ' ' ' ' ' ' ' ' ' ' ' ' ] ' ] ` ' ] ( #.C.M.M.N.Z.f - , , ; ",
"= > , ; s R P I I I U I U I I I I I I I I I I I I I I I I I I I I I I I I I I I I I I I I I I I I I I I I I I I I I I I I I I I I I I I I U L U I P Y K ) 7.7.7.4.6.s ; , > = ",
"- < > : < > : ; : > > : ; > > > > > > > > : : : > > > > > : : : : : : : : > > > > > > > > > > : : : > > , : : : : : : : : > : > , > > > > : : : : : : : : - - - - - < : > < - ",
"; 1 < : , , > : > , , > > , , , , , , , , > > > > > : : : > > > > , , , , > > > > > > > > > , , > > , > > , , , , , , , , > > > > > > : > , , , , , , , , < < < < < , : < 1 ; ",
"- , > : > , , , > > > > > , , , , , , , , , , , , , > > > , < < < , < , , , , , , , , , , > , , < < , > > > > > > > > > > , , > > > > > > > > > > > > > > , , , , , > : > , - ",
"- > , < 1 > > > : : : : : > > > > > > > > : : > > > : : : > , , > > : : : > > > > > > > > ; ; : > > > > > > > > > > > > > > : : : > > > > > > > > > > > > > > > > > 1 < , > - ",
"< < > > : < 1 1 < , < < < 1 1 1 1 1 1 1 1 , < < < , , , , 1 1 1 1 < < < 1 1 1 1 1 1 1 1 1 < < , < 1 < < < 1 1 1 1 1 1 1 1 1 < < < 1 < < , 1 1 1 1 1 1 1 1 1 1 1 1 1 : > > < < "
};
